<svg width="24" height="16" viewBox="0 0 24 16" fill="none" xmlns="http://www.w3.org/2000/svg">
<g clip-path="url(#clip0_987_1340)">
<path d="M24 0H0V16H24V0Z" fill="white"/>
<path d="M24 0H0V5.33333H24V0Z" fill="#FF9932"/>
<path d="M24 10.6666H0V16H24V10.6666Z" fill="#128808"/>
<path d="M12.3678 7.98266C12.3665 7.96266 12.3638 7.94132 12.3598 7.92266L12.7198 7.87199L13.7372 7.53466L12.6878 7.75199L12.3505 7.88932C12.3438 7.86932 12.3358 7.85066 12.3278 7.83332L12.6625 7.69199L13.5585 7.10266L12.6012 7.58399L12.3105 7.80266C12.2998 7.78532 12.2865 7.76932 12.2732 7.75466L12.5598 7.53066L13.2718 6.73066L12.4718 7.44266L12.2478 7.72932C12.2332 7.71599 12.2172 7.70266 12.1998 7.69199L12.4185 7.40132L12.8998 6.44399L12.3105 7.33999L12.1692 7.67466C12.1518 7.66532 12.1318 7.65732 12.1132 7.65066L12.2492 7.31466L12.4665 6.26532L12.1292 7.28266L12.0785 7.64266C12.0585 7.63866 12.0385 7.63599 12.0185 7.63466L12.0625 7.27466L11.9998 6.20532L11.9372 7.27466L11.9812 7.63466C11.9598 7.63599 11.9398 7.63866 11.9212 7.64266L11.8705 7.28266L11.5332 6.26532L11.7505 7.31466L11.8865 7.65066C11.8665 7.65732 11.8478 7.66532 11.8305 7.67466L11.6892 7.33999L11.0998 6.44399L11.5812 7.40132L11.7998 7.69199C11.7825 7.70266 11.7665 7.71599 11.7518 7.72932L11.5278 7.44266L10.7278 6.73066L11.4398 7.53066L11.7265 7.75466C11.7132 7.76932 11.7012 7.78666 11.6892 7.80266L11.3985 7.58399L10.4412 7.10266L11.3372 7.69199L11.6718 7.83332C11.6625 7.85199 11.6545 7.87066 11.6492 7.88932L11.3118 7.75199L10.2625 7.53466L11.2798 7.87199L11.6398 7.92266C11.6358 7.94266 11.6332 7.96266 11.6318 7.98266L11.2705 7.93732L10.2012 7.99999L11.2705 8.06266L11.6318 8.01732C11.6332 8.03732 11.6358 8.05866 11.6398 8.07732L11.2785 8.12799L10.2612 8.46532L11.3105 8.24799L11.6492 8.11066C11.6558 8.13066 11.6638 8.14932 11.6732 8.16666L11.3372 8.30932L10.4412 8.89866L11.3985 8.41732L11.6905 8.19732C11.7012 8.21466 11.7145 8.23066 11.7278 8.24532L11.4398 8.46932L10.7278 9.26932L11.5278 8.55732L11.7518 8.26932C11.7665 8.28266 11.7825 8.29466 11.7998 8.30666L11.5798 8.59866L11.0985 9.55599L11.6878 8.65999L11.8305 8.32399C11.8478 8.33332 11.8678 8.34132 11.8865 8.34799L11.7492 8.68666L11.5318 9.73599L11.8692 8.71866L11.9198 8.35599C11.9398 8.35999 11.9598 8.36266 11.9798 8.36399L11.9345 8.72666L11.9972 9.79599L12.0598 8.72666L12.0145 8.36399C12.0345 8.36266 12.0558 8.35999 12.0745 8.35599L12.1252 8.71866L12.4625 9.73599L12.2452 8.68666L12.1078 8.34799C12.1278 8.34132 12.1465 8.33332 12.1638 8.32399L12.3065 8.65999L12.8958 9.55599L12.4145 8.59866L12.1945 8.30666C12.2118 8.29599 12.2278 8.28266 12.2425 8.26932L12.4665 8.55732L13.2665 9.26932L12.5545 8.46932L12.2665 8.24532C12.2798 8.23066 12.2932 8.21466 12.3038 8.19732L12.5958 8.41732L13.5532 8.89866L12.6572 8.30932L12.3212 8.16666C12.3305 8.14932 12.3385 8.12932 12.3452 8.11066L12.6838 8.24799L13.7332 8.46532L12.7158 8.12799L12.3545 8.07732C12.3585 8.05732 12.3612 8.03732 12.3625 8.01732L12.7238 8.06266L13.7932 7.99999L12.7238 7.93732L12.3678 7.98266Z" fill="#000089"/>
<path d="M14.1152 7.72138C13.9619 6.55338 12.8899 5.73072 11.7219 5.88538C10.5539 6.03872 9.7312 7.11072 9.88587 8.27872C10.0392 9.44672 11.1112 10.2694 12.2792 10.1147C13.4472 9.96138 14.2699 8.88938 14.1152 7.72138ZM13.8619 8.14538C13.8085 8.14005 13.7605 8.17872 13.7539 8.23205C13.7472 8.28538 13.7832 8.33472 13.8365 8.34405C13.8192 8.44005 13.7939 8.53205 13.7619 8.62272C13.7112 8.60405 13.6552 8.62805 13.6352 8.67872C13.6152 8.72805 13.6365 8.78538 13.6859 8.80805C13.6445 8.89472 13.5952 8.97872 13.5419 9.05738C13.4979 9.02672 13.4379 9.03605 13.4059 9.07872C13.3739 9.12138 13.3805 9.18138 13.4205 9.21605C13.3579 9.28938 13.2899 9.35738 13.2165 9.42005C13.1819 9.38005 13.1219 9.37205 13.0792 9.40538C13.0365 9.43738 13.0272 9.49872 13.0579 9.54138C12.9792 9.59605 12.8952 9.64405 12.8085 9.68538C12.7859 9.63738 12.7299 9.61472 12.6805 9.63605C12.6312 9.65605 12.6072 9.71205 12.6245 9.76272C12.5352 9.79472 12.4419 9.81872 12.3459 9.83738C12.3365 9.78538 12.2872 9.74938 12.2352 9.75605C12.1819 9.76272 12.1445 9.81072 12.1485 9.86272C12.0512 9.87072 11.9552 9.87072 11.8605 9.86272C11.8645 9.80938 11.8272 9.76272 11.7739 9.75472C11.7205 9.74805 11.6725 9.78405 11.6619 9.83605C11.5659 9.81872 11.4739 9.79338 11.3832 9.76138C11.4019 9.71205 11.3765 9.65605 11.3272 9.63472C11.2779 9.61472 11.2219 9.63605 11.1992 9.68405C11.1125 9.64272 11.0285 9.59472 10.9499 9.54005C10.9805 9.49605 10.9712 9.43605 10.9285 9.40405C10.8859 9.37205 10.8259 9.37872 10.7912 9.41872C10.7179 9.35605 10.6499 9.28805 10.5872 9.21472C10.6285 9.18005 10.6352 9.12005 10.6019 9.07738C10.5685 9.03472 10.5085 9.02538 10.4645 9.05605C10.4099 8.97738 10.3619 8.89338 10.3205 8.80672C10.3685 8.78405 10.3912 8.72805 10.3712 8.67738C10.3512 8.62805 10.2939 8.60405 10.2445 8.62138C10.2125 8.53205 10.1872 8.43872 10.1699 8.34272C10.2219 8.33338 10.2592 8.28405 10.2525 8.23072C10.2459 8.17738 10.1979 8.13872 10.1445 8.14405C10.1365 8.04672 10.1365 7.95072 10.1445 7.85472C10.1979 7.86005 10.2459 7.82138 10.2539 7.76805C10.2605 7.71472 10.2245 7.66538 10.1712 7.65605C10.1885 7.56005 10.2139 7.46672 10.2459 7.37738C10.2965 7.39605 10.3525 7.37205 10.3739 7.32272C10.3952 7.27205 10.3712 7.21605 10.3232 7.19338C10.3645 7.10672 10.4139 7.02272 10.4672 6.94272C10.5112 6.97472 10.5712 6.96538 10.6045 6.92272C10.6379 6.88005 10.6299 6.81872 10.5885 6.78405C10.6512 6.71072 10.7192 6.64272 10.7925 6.58005C10.8272 6.62138 10.8885 6.62938 10.9312 6.59605C10.9739 6.56272 10.9832 6.50138 10.9512 6.45738C11.0299 6.40272 11.1139 6.35472 11.2019 6.31338C11.2232 6.36272 11.2819 6.38672 11.3312 6.36538C11.3819 6.34405 11.4059 6.28805 11.3859 6.23738C11.4752 6.20538 11.5685 6.18005 11.6645 6.16272C11.6725 6.21605 11.7219 6.25338 11.7765 6.24672C11.8299 6.24005 11.8685 6.19072 11.8632 6.13738C11.9605 6.12938 12.0579 6.12938 12.1525 6.13738C12.1472 6.19072 12.1845 6.24005 12.2392 6.24672C12.2925 6.25338 12.3432 6.21605 12.3512 6.16272C12.4472 6.18005 12.5405 6.20538 12.6299 6.23738C12.6099 6.28805 12.6352 6.34538 12.6845 6.36538C12.7352 6.38672 12.7925 6.36272 12.8139 6.31338C12.9005 6.35472 12.9845 6.40405 13.0645 6.45872C13.0325 6.50272 13.0419 6.56405 13.0845 6.59605C13.1272 6.62938 13.1885 6.62138 13.2232 6.58005C13.2965 6.64272 13.3645 6.71072 13.4272 6.78405C13.3859 6.81872 13.3779 6.87872 13.4112 6.92272C13.4445 6.96538 13.5059 6.97472 13.5485 6.94272C13.6032 7.02138 13.6512 7.10538 13.6925 7.19338C13.6432 7.21605 13.6205 7.27205 13.6419 7.32272C13.6632 7.37205 13.7192 7.39738 13.7699 7.37738C13.8019 7.46672 13.8259 7.56005 13.8445 7.65605C13.7912 7.66538 13.7552 7.71472 13.7619 7.76805C13.7685 7.82138 13.8165 7.85872 13.8699 7.85472C13.8699 7.95472 13.8685 8.05072 13.8619 8.14538Z" fill="#000089"/>
<path d="M24 0H0V5.33315H24V0Z" fill="#00812D"/>
<path d="M24 5.33313H0V10.6663H24V5.33313Z" fill="white"/>
<path d="M24 10.6663H0V15.9994H24V10.6663Z" fill="black"/>
<path d="M6.21917 0H0V16H6.21917V0Z" fill="#D62612"/>
</g>
<defs>
<clipPath id="clip0_987_1340">
<rect width="24" height="16" rx="1" fill="white"/>
</clipPath>
</defs>
</svg>
